<svg viewBox="0 0 36 10" role="img" aria-label="SHRDLU" preserveAspectRatio="xMidYMid meet" shape-rendering="crispEdges" xmlns="http://www.w3.org/2000/svg"><path fill="#3aa862" d="M1 1h1v1h-1zM2 1h1v1h-1zM3 1h1v1h-1zM0 2h1v1h-1zM4 2h1v1h-1zM0 3h1v1h-1zM1 4h1v1h-1zM2 4h1v1h-1zM3 4h1v1h-1zM4 5h1v1h-1zM0 6h1v1h-1zM4 6h1v1h-1zM1 7h1v1h-1zM2 7h1v1h-1zM3 7h1v1h-1zM6 1h1v1h-1zM10 1h1v1h-1zM6 2h1v1h-1zM10 2h1v1h-1zM6 3h1v1h-1zM10 3h1v1h-1zM6 4h1v1h-1zM7 4h1v1h-1zM8 4h1v1h-1zM9 4h1v1h-1zM10 4h1v1h-1zM6 5h1v1h-1zM10 5h1v1h-1zM6 6h1v1h-1zM10 6h1v1h-1zM6 7h1v1h-1zM10 7h1v1h-1zM12 1h1v1h-1zM13 1h1v1h-1zM14 1h1v1h-1zM15 1h1v1h-1zM12 2h1v1h-1zM16 2h1v1h-1zM12 3h1v1h-1zM16 3h1v1h-1zM12 4h1v1h-1zM13 4h1v1h-1zM14 4h1v1h-1zM15 4h1v1h-1zM12 5h1v1h-1zM14 5h1v1h-1zM12 6h1v1h-1zM15 6h1v1h-1zM12 7h1v1h-1zM16 7h1v1h-1zM18 1h1v1h-1zM19 1h1v1h-1zM20 1h1v1h-1zM21 1h1v1h-1zM19 2h1v1h-1zM22 2h1v1h-1zM19 3h1v1h-1zM22 3h1v1h-1zM19 4h1v1h-1zM22 4h1v1h-1zM19 5h1v1h-1zM22 5h1v1h-1zM19 6h1v1h-1zM22 6h1v1h-1zM18 7h1v1h-1zM19 7h1v1h-1zM20 7h1v1h-1zM21 7h1v1h-1zM24 1h1v1h-1zM24 2h1v1h-1zM24 3h1v1h-1zM24 4h1v1h-1zM24 5h1v1h-1zM24 6h1v1h-1zM24 7h1v1h-1zM25 7h1v1h-1zM26 7h1v1h-1zM27 7h1v1h-1zM28 7h1v1h-1zM30 1h1v1h-1zM34 1h1v1h-1zM30 2h1v1h-1zM34 2h1v1h-1zM30 3h1v1h-1zM34 3h1v1h-1zM30 4h1v1h-1zM34 4h1v1h-1zM30 5h1v1h-1zM34 5h1v1h-1zM30 6h1v1h-1zM34 6h1v1h-1zM31 7h1v1h-1zM32 7h1v1h-1zM33 7h1v1h-1z"/></svg>
